# xmcd
#
# Track frame offsets:
#	150
#	17403
#	36489
#	51407
#	65247
#	83826
#	103563
#	115459
#	128298
#	143555
#	158995
#	174939
#	190853
#	210185
#	222527
#	239615
#
# Disc length: 3359 seconds
#
# Revision: 0
# Processed by: cddbd v1.5.2PL0 Copyright (c) Steve Scherf et al.
# Submitted via: audiograbber 1.83.01
#
DISCID=e00d1d10
DTITLE=compilation - EX24
DYEAR=1900
DGENRE=Karaoke
TTITLE0=Randy Travis - Forever And Ever Amen
TTITLE1=Garth Brooks - Friends In Low Places
TTITLE2=Hank Williams Sr. - Hey Good Lookin'
TTITLE3=LeAnn  Rimes - Hurt Me
TTITLE4=Willie Nelson and Waylon Jennings - Mamas Don't Let Your Babies Grow Up T
TTITLE4=o Be Cowboys
TTITLE5=John Michael Montgomery - I Swear
TTITLE6=Alan Jackson - Chatahoochie
TTITLE7=Conway Twitty - It's Only Make Believe
TTITLE8=Reba McEntire - Take It Back
TTITLE9=Crystal Gayle - Why Have You Left The One You Left Me For
TTITLE10=Reba McEntire - Why Haven't I Heard From You
TTITLE11=Reba McEntire and Vince Gill - The Heart Won't Lie
TTITLE12=Vince Gill - No Future In The Past
TTITLE13=Garth Brooks - Two Of A Kind (working on a full house)
TTITLE14=Garth Brooks - Standing Outside The Fire
TTITLE15=Marie Osmond - Paper Roses
EXTD=
EXTT0=
EXTT1=
EXTT2=
EXTT3=
EXTT4=
EXTT5=
EXTT6=
EXTT7=
EXTT8=
EXTT9=
EXTT10=
EXTT11=
EXTT12=
EXTT13=
EXTT14=
EXTT15=
PLAYORDER=
